<?xml version="1.0" encoding="utf-8"?>
<!-- Generator: Adobe Illustrator 26.5.0, SVG Export Plug-In . SVG Version: 6.00 Build 0)  -->
<svg version="1.1" id="Layer_1" xmlns="http://www.w3.org/2000/svg" xmlns:xlink="http://www.w3.org/1999/xlink" x="0px" y="0px"
	 viewBox="0 0 582 111" style="enable-background:new 0 0 582 111;" xml:space="preserve">
<style type="text/css">
	.st0{fill:#DA1D3B;}
	.st1{fill:#FFFFFF;}
</style>
<path class="st0" d="M0,112C0,74.6,0,37.3,0-0.1c194,0,388,0,581.9,0c0,37.4,0,74.7,0,112.1C388,112,194,112,0,112z"/>
<path class="st1" d="M95.5,40.7c3.7,0,7,0,10.7,0c0,11.5,0,22.8,0,34.5c-3.3,0-6.4,0-10.3,0c-3.5-4.3-7.3-9.1-11.5-14.2
	c-1.9,4.8,0,9.6-1.4,14.2c-3.5,0.7-6.9,0.4-10.7,0.1c0-11.5,0-22.8,0-34.4c3.4,0,6.7,0,10.7,0c3.4,4.2,7.1,8.8,11.3,14
	C95.9,49.9,94.3,45.4,95.5,40.7z"/>
<path class="st1" d="M429.1,57c2.1,2,4.7,3.1,5.6,5.9c1.7,5.3-1.4,10.7-7.7,11.9c-7.9,1.5-15.8,0.5-24.2,0.6c0-11.6,0-22.8,0-34.8
	c7.9,0.1,15.8-0.6,23.7,0.5c3.5,0.5,6.3,2.6,7.2,6.2C434.8,51.6,432.7,54.7,429.1,57z M423.4,63.6c-3-3-6-1.9-8.9-1.8
	c-0.6,1.7-0.9,3.1,0.4,4.5C417.7,65.8,421.3,68.2,423.4,63.6z M422.4,51.4c-2.7-2.6-5.3-1.8-7.9-1.6c-0.7,1.5-0.8,2.8,0,4.3
	C417.4,54,420.7,55.7,422.4,51.4z"/>
<path class="st1" d="M130.2,75.4c0-11.8,0-23,0-34.7c7.1,0,14-0.9,20.9,0.8c8.4,2.1,12.9,8,12.8,16.7c-0.1,8.4-5.1,14.7-13.3,16.5
	C144,76.1,137.4,75.3,130.2,75.4z M142.3,51.4c0,4.6,0,9.1,0,13.7c7.4-0.3,10-2.4,9.8-7.5C151.8,52.8,148.7,50.8,142.3,51.4z"/>
<path class="st1" d="M507.2,40.8c9.7,0,19.2,0,28.7,0c1.1,3,0.6,5.9,0.3,9.5c-5.9,0-11.6,0-17.4,0c0.7,3.4,0.7,3.3,7.1,3.4
	c2.9,0,6-0.6,8.9,0.5c0.8,2.6,0.5,5,0,8c-5.2,0-10.4,0-15.7,0c-1.2,3.2,0.4,3.6,2.5,3.6c4.8,0,9.6,0,14.5,0c1.3,3.2,0.5,6.1,0.6,9.4
	c-10,0-19.5,0-29.4,0C507.2,63.8,507.2,52.6,507.2,40.8z"/>
<path class="st1" d="M318,62.9c4.7,2.7,9.2,4.9,15.2,3c-2.1-3-5.2-2.6-7.6-3.4c-1.4-0.4-2.7-0.1-4.2-1c-6.5-3.8-8.5-6.8-7.4-12.1
	c1-5.2,5.8-9,12.2-9.3c6.4-0.3,12.6,0,17.8,4.9c-1.8,2.6-3.6,5-5.3,7.5c-4.3-1.5-8-4.5-12.7-2.3c0.5,2.4,2.3,2.1,3.6,2.5
	c2.9,0.9,5.9,1.4,8.6,2.5c4.1,1.7,6.9,4.5,6.7,9.5c-0.2,4.9-2.6,8.5-7.1,10c-9.1,3.1-17.6,1.6-26-4.2C314,67.8,316,65.4,318,62.9z"
	/>
<path class="st1" d="M219.4,40.7c4.7,0,8.6,0,12.7,0c3.2,4.6,2.4,11.2,7.5,15.2c3.5-4.7,3.3-10.7,6.6-15.3c3.8,0,7.6,0,12.3,0
	c-4.7,11.9-9.2,23.3-13.7,34.7c-3.9,0.6-7.5,0.5-11.5,0C228.7,64.1,224.2,52.6,219.4,40.7z"/>
<path class="st1" d="M484.9,75.2c-9.5,0-18.3,0-27.5,0c0-11.5,0-22.8,0-34.4c3.4-0.8,7-0.4,11.1-0.1c0,8.1,0,16,0,24.1
	c5.5,1.3,10.7,0,15.9,0.9C485.4,68.8,484.7,71.8,484.9,75.2z"/>
<path class="st1" d="M48.1,75.2c-4.1,0-7.4,0-11,0c0-11.6,0-22.9,0-34.3c3.7-0.8,7.2-0.3,11-0.4C48.1,52.3,48.1,63.7,48.1,75.2z"/>
<path class="st1" d="M291,40.8c0,11.5,0,22.8,0,34.2c-3.7,0.8-7.2,0.3-11,0.4c0-11.6,0-22.9,0-34.6C283.6,40.3,287.2,40.3,291,40.8z
	"/>
<path class="st1" d="M378.6,75.2c-3.8,0.4-7.2,0.4-11-0.1c0-11.4,0-22.7,0-34.3c3.6-0.6,7.2-0.4,11-0.1
	C378.6,52.2,378.6,63.4,378.6,75.2z"/>
<path class="st1" d="M198.1,75c-3.7,0.8-7.1,0.5-11,0.3c0-11.5,0-22.8,0-34.3c3.6-0.8,7.1-0.6,11-0.2
	C198.1,52.3,198.1,63.6,198.1,75z"/>
</svg>
