<?xml version="1.0" encoding="utf-8"?>
<!-- Generator: Adobe Illustrator 26.5.0, SVG Export Plug-In . SVG Version: 6.00 Build 0)  -->
<svg version="1.1" id="Layer_1" xmlns="http://www.w3.org/2000/svg" xmlns:xlink="http://www.w3.org/1999/xlink" x="0px" y="0px"
	 viewBox="0 0 112 13" style="enable-background:new 0 0 112 13;" xml:space="preserve">
<style type="text/css">
	.st0{fill:#000000;}
</style>
<path class="st0" d="M9.4,12.1h-2L4.2,5l-1.4,7.1H0.7l2-10.8h2l3.1,7l1.3-7h2.2L9.4,12.1z"/>
<path class="st0" d="M13.3,1.3H20L19.7,3H15l-0.5,2.8h4.1l-0.3,1.8h-4.1l-0.5,2.6h4.9L18.3,12h-6.9L13.3,1.3z"/>
<path class="st0" d="M32.8,1.3h2.3l-5.8,10.8h-1.8L27,5.8l-2.6,6.3h-1.9L20.8,1.3H23l1,7.5l2.8-7.5h1.7l0.6,7.5L32.8,1.3z"/>
<path class="st0" d="M53.7,8.8c-0.1,0.8,0.5,1.5,1.7,1.5c1.1,0,1.9-0.5,2.1-1.3c0.2-0.7-0.2-1.2-1.3-1.4l-1.3-0.3
	c-2.3-0.7-2.5-2-2.3-2.9C53,2.5,54.9,1.3,57,1.3s3.5,1.2,3.1,3.2H58c0.2-0.8-0.4-1.4-1.4-1.4c-0.9,0-1.8,0.5-1.9,1.2
	c-0.1,0.3,0,0.9,1.1,1.2l1.3,0.4c2.4,0.6,2.8,2,2.5,3.2c-0.5,1.9-2.5,3-4.5,3c-2.4,0-3.8-1.4-3.4-3.2h2V8.8z"/>
<path class="st0" d="M67.6,1.3c-3.1,0-6.1,2.4-6.7,5.4c-0.6,3,1.4,5.4,4.6,5.4s6.2-2.4,6.7-5.4C72.8,3.7,70.8,1.3,67.6,1.3z
	 M70.2,6.6c-0.3,2-2.2,3.5-4.2,3.5c-2.1,0-3.3-1.5-2.9-3.5c0.3-1.9,2.2-3.5,4.2-3.5S70.6,4.7,70.2,6.6z"/>
<path class="st0" d="M79.7,8.2L81,1.3h2.1l-1.3,6.9c-0.4,2.4-2.7,3.9-5,3.9s-4.1-1.5-3.6-3.9l1.3-6.9h2.2l-1.3,6.9
	c-0.2,1.2,0.7,2,1.8,2C78.3,10.2,79.5,9.4,79.7,8.2z"/>
<path class="st0" d="M91.1,12.1h-2L85.9,5l-1.4,7.1h-2.2l2.1-10.8h2l3.1,7l1.3-7H93L91.1,12.1z"/>
<path class="st0" d="M98.9,1.4h-4.4l-2,10.5h4.4c3.3,0,5.5-2.2,6.1-5.2S102.1,1.4,98.9,1.4z M100.9,6.6c-0.4,1.9-1.7,3.5-3.7,3.5
	h-2.3l1.4-7h2.3C100.6,3.1,101.3,4.7,100.9,6.6z"/>
<path class="st0" d="M105.3,8.8c-0.1,0.8,0.5,1.5,1.7,1.5c1.1,0,1.9-0.6,2.1-1.3s-0.2-1.2-1.3-1.4l-1.3-0.3c-2.3-0.7-2.4-2-2.3-2.9
	c0.3-1.8,2.3-3.1,4.4-3.1s3.5,1.2,3.1,3.2h-2.1c0.2-0.8-0.4-1.4-1.4-1.4c-0.9,0-1.8,0.5-1.9,1.2c-0.1,0.3,0,0.9,1.1,1.2l1.3,0.4
	c2.4,0.6,2.8,2,2.4,3.2c-0.5,1.9-2.4,3-4.5,3c-2.4,0-3.8-1.4-3.4-3.2h2.1V8.8z"/>
<path class="st0" d="M46.4,0.6c-1-0.1-1.9,0.2-2.5,0.7c-0.7,0.5-1,1.3-1,2.3v5.7l-0.5-0.4c-0.7-0.6-1.6-1.4-2.7-1.5
	C38.8,7.3,38,7.5,37.4,8c-0.6,0.5-0.9,1.1-0.9,1.8c0,1.2,1.1,2.7,3.1,2.9c0.2,0,0.3,0,0.5,0c0.8,0,1.5-0.2,2.1-0.7
	c0.7-0.5,1-1.3,1-2.3V4l0.4,0.5c0.7,0.6,1.6,1.4,2.7,1.5c0.9,0.1,1.7-0.2,2.3-0.7c0.6-0.5,0.9-1.1,0.9-1.8
	C49.5,2.3,48.4,0.8,46.4,0.6z M42.1,11.9c-0.6,0.5-1.4,0.7-2.3,0.6C38,12.3,37,11,37,9.9c0-0.6,0.2-1.2,0.7-1.6
	C38,8,38.5,7.7,39.3,7.7c0.1,0,0.2,0,0.5,0.1c1,0.1,1.9,0.9,2.5,1.4L43,9.9C43,10.7,42.7,11.4,42.1,11.9z M48.4,5.2
	c-0.3,0.3-1,0.6-2,0.5c-1-0.1-1.9-0.9-2.5-1.4l-0.7-0.7c0-0.9,0.3-1.6,0.8-2c0.6-0.5,1.4-0.7,2.3-0.6c1.8,0.2,2.8,1.5,2.8,2.6
	C49.1,4.2,48.9,4.8,48.4,5.2z"/>
<path class="st0" d="M46.2,12.7c-0.2,0-0.4-0.1-0.5-0.2l-1.8-1.7v-0.5l2,2c0.2,0.1,0.4,0.1,0.6,0c0.1-0.1,0.1-0.2,0.1-0.3
	s0-0.2-0.1-0.3l-9-8.6c-0.3-0.3-0.3-0.7,0-1s0.8-0.3,1.1,0l10.6,10.1c0.2,0.1,0.4,0.1,0.6,0c0.2-0.1,0.2-0.4,0-0.5l-9-8.6
	c-0.3-0.3-0.3-0.7,0-1s0.8-0.3,1.1,0l1.8,1.7v0.5l-2-1.9c-0.2-0.1-0.4-0.1-0.6,0c-0.2,0.1-0.2,0.4,0,0.5l9,8.6c0.3,0.3,0.3,0.7,0,1
	s-0.8,0.3-1.1,0L38.3,2.4c-0.2-0.1-0.4-0.1-0.6,0c-0.2,0.1-0.2,0.4,0,0.5l9,8.6c0.1,0.1,0.2,0.3,0.2,0.5s-0.1,0.4-0.2,0.5
	C46.6,12.7,46.4,12.7,46.2,12.7z"/>
</svg>
