<?xml version="1.0" encoding="utf-8"?>
<!-- Generator: Adobe Illustrator 26.5.0, SVG Export Plug-In . SVG Version: 6.00 Build 0)  -->
<svg version="1.1" id="layer" xmlns="http://www.w3.org/2000/svg" xmlns:xlink="http://www.w3.org/1999/xlink" x="0px" y="0px"
	 viewBox="0 0 618 144" style="enable-background:new 0 0 618 144;" xml:space="preserve">
<style type="text/css">
	.st0{fill:#00AEFF;}
</style>
<polygon class="st0" points="41,112.6 64.2,112.6 83.4,59.6 102.7,112.6 125.8,112.6 157.8,19.8 130.3,19.8 113.6,73.1 95.1,19.6 
	72.3,19.6 53.8,73.1 37.1,19.8 9,19.8 "/>
<path class="st0" d="M277.7,67.7v-0.3c0-26.6-22.5-47.9-52.8-47.9s-53.1,21.6-53.1,48.2V68c0,26.6,22.5,47.9,52.8,47.9
	c1.4,0,2.8-0.1,4.1-0.2c2.8,5,6.6,9.7,11.6,13.8c6.2,5,14.1,8.9,23.3,10.9l15.1-21.1c-12.1,0.9-19.8-5.5-24.1-11.6
	C268.8,99.1,277.7,84.4,277.7,67.7L277.7,67.7z M249.9,68c0,13.4-10,24.8-25,24.8c-14.9,0-25.1-11.6-25.1-25v-0.3
	c0-13.4,10-24.8,24.9-24.8c15,0,25.3,11.6,25.3,25L249.9,68L249.9,68z"/>
<polygon class="st0" points="297.4,112.6 325.9,112.6 343.6,84.5 361.2,112.6 390.4,112.6 359,65 389.1,19.6 360.5,19.6 344.1,45.7 
	327.9,19.6 298.7,19.6 328.8,65.3 "/>
<path class="st0" d="M503.7,51.6v-0.3c0-9.2-2.7-16.3-8.1-21.7c-6.1-6.4-15.7-10.1-29.6-10.1h-43v93h25.2V84.3h11l18.3,28.2h29.1
	L485,80.1C496.3,75.2,503.7,65.8,503.7,51.6L503.7,51.6z M478.3,53.2c0,6.8-4.9,11-13.5,11h-16.6V41.9h16.5c8.4,0,13.7,3.7,13.7,11
	v0.3H478.3z"/>
<polygon class="st0" points="595,131.2 609,131.2 609,10.3 595,10.3 "/>
<path class="st0" d="M557.8,66.1c5.1,0,9.3-4.2,9.3-9.3c0-5.1-4.2-9.3-9.3-9.3s-9.3,4.2-9.3,9.3S552.7,66.1,557.8,66.1"/>
<path class="st0" d="M557.8,98.6c5.1,0,9.3-4.2,9.3-9.3c0-5.1-4.2-9.3-9.3-9.3s-9.3,4.2-9.3,9.3C548.5,94.5,552.7,98.6,557.8,98.6"
	/>
<polygon class="st0" points="581.1,131.2 585.7,131.2 585.7,10.3 581.1,10.3 "/>
</svg>
