<svg width="86" height="86" viewBox="0 0 86 86" fill="none" xmlns="http://www.w3.org/2000/svg">
<path d="M23 42.5C23 23.9906 30.9498 11 42.4979 11C47.3515 11 49.6946 13.6321 51.7866 13.6321C53.0418 13.6321 53.9623 12.8679 54.2134 12.0189H56.3054V27.7264H54.1297C54.046 23.3113 47.6862 14.566 41.9121 14.566C35.1339 14.566 31.1172 22.0377 31.1172 35.1981C31.1172 55.5755 36.5565 69.5849 44.0879 69.5849C46.9331 69.5849 49.1925 67.8868 50.6151 64.8302V45.1321C50.6151 44.1981 48.6904 41.9906 48.0209 41.9906H45.3431V39.783H63V41.9906H61.159C60.3222 41.9906 58.4812 44.1981 58.4812 45.1321V73.1509H58.0628L53.0418 68.4811C50.4477 71.9623 46.682 74 42.0795 74C30.7824 74 23 61.0943 23 42.5Z" fill="black"/>
</svg>
