<svg width="1109" height="230" viewBox="0 0 1109 230" fill="none" xmlns="http://www.w3.org/2000/svg">
<path fill-rule="evenodd" clip-rule="evenodd" d="M0 114.885C0 47.3785 29.418 0 72.1515 0C82.9937 0 90.4505 3.49826 96.3612 6.27118C100.242 8.09169 103.456 9.59956 106.524 9.59956C111.169 9.59956 114.575 6.81259 115.504 3.71596H123.246V61.0036H115.195C114.885 44.9011 91.3506 13.0058 69.9839 13.0058C44.9011 13.0058 30.0373 40.2562 30.0373 88.254C30.0373 162.573 50.1654 213.668 78.0351 213.668C88.5636 213.668 96.9245 207.474 102.189 196.326V124.485C102.189 121.078 95.0666 113.027 92.5893 113.027H82.68V104.976H148.019V113.027H141.206C138.11 113.027 131.297 121.078 131.297 124.485V226.673H129.749L111.169 209.642C101.569 222.338 87.6347 229.77 70.6032 229.77C28.7987 229.77 0 182.701 0 114.885ZM156.999 147.709C156.999 99.7115 181.153 65.6486 215.525 65.6486C249.898 65.6486 274.052 99.7115 274.052 147.709C274.052 195.707 249.898 229.77 215.525 229.77C181.153 229.77 156.999 195.707 156.999 147.709ZM248.35 173.721C248.35 120.149 230.699 79.2738 208.403 79.2738C192.92 79.2738 182.701 95.0666 182.701 121.698C182.701 174.96 200.352 216.145 222.648 216.145C238.131 216.145 248.35 200.352 248.35 173.721ZM330.708 229.77C344.643 229.77 356.41 216.455 367.867 197.875L361.674 193.849C353.932 204.378 346.81 210.261 341.546 210.261C332.256 210.261 326.682 201.281 326.682 194.778V84.8477H362.293V73.3902H325.443V28.489H318.321C318.012 35.9209 292.619 73.3902 286.116 73.3902H276.207V84.2284H298.503V198.184C298.503 216.455 310.889 229.77 330.708 229.77ZM412.768 92.2796C426.393 78.3448 442.186 65.0293 458.598 65.0293C478.727 65.0293 493.281 84.538 493.281 101.879V207.784C493.281 211.19 499.784 218.932 502.261 218.932H509.074V226.673H449.309V218.932H455.811C458.289 218.932 465.101 211.19 465.101 207.784V103.427C465.101 94.1376 456.74 85.1573 448.689 85.1573C437.541 85.1573 423.607 95.0666 412.768 106.834V207.784C412.768 211.19 419.581 218.932 422.058 218.932H427.942V226.673H369.415V218.932H375.299C377.776 218.932 384.589 211.19 384.589 207.784V28.1793C384.589 23.5344 375.918 15.4832 372.512 15.4832H366.319V7.74158C382.421 7.43191 400.072 4.33528 411.22 0H412.768V92.2796ZM587.109 115.814C540.04 137.49 516.506 155.451 516.506 187.656C516.506 213.048 530.75 229.77 552.736 229.77C565.742 229.77 577.819 220.17 588.967 209.642C592.373 220.48 601.663 228.531 611.882 228.531C622.101 228.531 631.081 218.312 640.061 197.255L633.558 194.159C629.533 201.9 625.507 207.165 622.101 207.165C618.695 207.165 615.288 202.829 615.288 198.184V111.788C615.288 82.68 599.496 65.6486 571.936 65.6486C541.279 65.6486 518.054 83.9187 518.054 104.666C518.054 110.859 522.08 114.266 529.202 114.266C539.731 114.266 547.782 109.001 547.782 101.879C547.782 100.29 547.619 98.0486 547.46 95.8662L547.46 95.8649L547.459 95.852C547.309 93.7865 547.162 91.7753 547.162 90.4216C547.162 83.609 552.427 77.4158 563.575 77.4158C577.509 77.4158 587.109 88.8733 587.109 105.905V115.814ZM587.109 197.255C579.367 205.307 572.245 210.571 564.504 210.571C552.117 210.571 543.447 196.326 543.447 176.818C543.447 152.974 560.168 140.897 587.109 126.962V197.255ZM587.109 199.113V199.733L586.49 199.113H587.109ZM699.826 226.673H641.3V218.932H647.183C649.661 218.932 656.473 211.19 656.473 207.784V97.2342C656.473 92.5893 647.803 84.538 644.396 84.538H638.203V76.7964C646.254 76.1771 666.692 69.9839 675.672 65.6486H677.221L683.724 89.8023C696.729 76.7964 710.664 65.0293 725.838 65.0293C742.56 65.0293 753.088 76.1771 756.494 90.112C769.191 77.1061 783.435 65.0293 798.609 65.0293C818.737 65.0293 830.194 81.4414 830.194 98.7825V207.784C830.194 211.19 837.007 218.932 839.484 218.932H845.368V226.673H786.841V218.932H792.725C795.202 218.932 802.015 211.19 802.015 207.784V100.331C802.015 91.0409 796.751 85.1573 788.699 85.1573C779.1 85.1573 767.642 93.5182 757.423 103.737V207.784C757.423 211.19 764.236 218.932 766.713 218.932H772.597V226.673H714.071V218.932H719.954C722.431 218.932 729.244 211.19 729.244 207.784V100.331C729.244 91.0409 723.98 85.1573 715.929 85.1573C706.329 85.1573 694.871 93.5182 684.653 103.737V207.784C684.653 211.19 691.465 218.932 693.943 218.932H699.826V226.673ZM896.76 207.784V65.6486H895.211C885.921 69.9839 857.432 76.1771 848.762 76.7964V84.538H856.503C859.91 84.538 868.58 92.5893 868.58 97.2342V207.784C868.58 211.19 861.768 218.932 859.29 218.932H851.858V226.673H913.481V218.932H906.049C903.572 218.932 896.76 211.19 896.76 207.784ZM862.077 27.56C862.077 38.3982 870.748 46.4495 880.967 46.4495C891.186 46.4495 899.856 38.3982 899.856 27.56C899.856 16.7218 891.186 8.67056 880.967 8.67056C870.748 8.67056 862.077 16.7218 862.077 27.56ZM926.487 226.673V174.96H933.919C935.158 186.108 953.118 216.764 974.485 216.764C986.562 216.764 995.542 207.165 995.542 192.301C995.542 180.534 988.729 172.173 977.891 164.741L945.686 142.755C930.513 132.536 924.01 121.388 924.01 107.763C924.01 82.9897 942.28 67.1969 963.956 67.1969C974.123 67.1969 980.844 70.1676 985.959 72.4285C989.101 73.8174 991.637 74.9385 993.994 74.9385C996.471 74.9385 999.258 72.7708 1000.19 69.9838H1006.38V114.885H999.568C998.329 105.285 981.297 78.6544 963.337 78.6544C953.428 78.6544 946.306 84.8477 946.306 94.7569C946.306 104.666 953.737 112.098 963.647 118.911L995.852 141.206C1011.33 152.045 1018.46 164.431 1018.46 179.914C1018.46 209.023 998.639 228.222 972.627 228.222C962.82 228.222 955.521 224.998 949.987 222.554C946.61 221.062 943.891 219.861 941.661 219.861C937.945 219.861 934.538 222.957 933.3 226.673H926.487ZM1071.1 229.77C1085.03 229.77 1096.8 216.455 1108.26 197.875L1102.07 193.849C1094.32 204.378 1087.2 210.261 1081.94 210.261C1072.65 210.261 1067.07 201.281 1067.07 194.778V84.8477H1102.69V73.3902H1065.84V28.489H1058.71C1058.4 35.9209 1033.01 73.3902 1026.51 73.3902H1016.6V84.2284H1038.89V198.184C1038.89 216.455 1051.28 229.77 1071.1 229.77Z" fill="white"/>
</svg>
