<svg width="1109" height="230" viewBox="0 0 1109 230" fill="none" xmlns="http://www.w3.org/2000/svg">
<path fill-rule="evenodd" clip-rule="evenodd" d="M0 114.999C0 47.4927 29.418 0.114227 72.1515 0.114227C82.9937 0.114227 90.4505 3.61248 96.3612 6.3854C100.242 8.20592 103.456 9.71378 106.524 9.71378C111.169 9.71378 114.575 6.92682 115.504 3.83018H123.246V61.1179H115.195C114.885 45.0154 91.3506 13.1201 69.9839 13.1201C44.9011 13.1201 30.0373 40.3704 30.0373 88.3682C30.0373 162.687 50.1654 213.782 78.0351 213.782C88.5636 213.782 96.9245 207.589 102.189 196.441V124.599C102.189 121.192 95.0666 113.141 92.5893 113.141H82.68V105.09H148.019V113.141H141.206C138.11 113.141 131.297 121.192 131.297 124.599V226.788H129.749L111.169 209.756C101.569 222.452 87.6347 229.884 70.6032 229.884C28.7987 229.884 0 182.815 0 114.999ZM156.999 147.824C156.999 99.8257 181.153 65.7628 215.525 65.7628C249.898 65.7628 274.052 99.8257 274.052 147.824C274.052 195.821 249.898 229.884 215.525 229.884C181.153 229.884 156.999 195.821 156.999 147.824ZM248.35 173.835C248.35 120.264 230.699 79.388 208.403 79.388C192.92 79.388 182.701 95.1808 182.701 121.812C182.701 175.074 200.352 216.259 222.648 216.259C238.131 216.259 248.35 200.466 248.35 173.835ZM330.708 229.884C344.643 229.884 356.41 216.569 367.867 197.989L361.674 193.963C353.932 204.492 346.81 210.375 341.546 210.375C332.256 210.375 326.682 201.395 326.682 194.892V84.9619H362.293V73.5044H325.443V28.6032H318.321C318.012 36.0352 292.619 73.5044 286.116 73.5044H276.207V84.3426H298.503V198.299C298.503 216.569 310.889 229.884 330.708 229.884ZM412.768 92.3938C426.393 78.459 442.186 65.1435 458.598 65.1435C478.727 65.1435 493.281 84.6523 493.281 101.993V207.898C493.281 211.304 499.784 219.046 502.261 219.046H509.074V226.788H449.309V219.046H455.811C458.289 219.046 465.101 211.304 465.101 207.898V103.542C465.101 94.2518 456.74 85.2716 448.689 85.2716C437.541 85.2716 423.607 95.1808 412.768 106.948V207.898C412.768 211.304 419.581 219.046 422.058 219.046H427.942V226.788H369.415V219.046H375.299C377.776 219.046 384.589 211.304 384.589 207.898V28.2936C384.589 23.6486 375.918 15.5974 372.512 15.5974H366.319V7.8558C382.421 7.54614 400.072 4.44951 411.22 0.114227H412.768V92.3938ZM587.109 115.928C540.04 137.605 516.506 155.565 516.506 187.77C516.506 213.162 530.75 229.884 552.736 229.884C565.742 229.884 577.819 220.285 588.967 209.756C592.373 220.594 601.663 228.646 611.882 228.646C622.101 228.646 631.081 218.427 640.061 197.37L633.558 194.273C629.533 202.015 625.507 207.279 622.101 207.279C618.695 207.279 615.288 202.944 615.288 198.299V111.903C615.288 82.7943 599.496 65.7628 571.936 65.7628C541.279 65.7628 518.054 84.0329 518.054 104.78C518.054 110.974 522.08 114.38 529.202 114.38C539.731 114.38 547.782 109.116 547.782 101.993C547.782 100.404 547.619 98.1628 547.46 95.9804L547.46 95.9791L547.459 95.9662C547.309 93.9007 547.162 91.8895 547.162 90.5359C547.162 83.7233 552.427 77.53 563.575 77.53C577.509 77.53 587.109 88.9875 587.109 106.019V115.928ZM587.109 197.37C579.367 205.421 572.245 210.685 564.504 210.685C552.117 210.685 543.447 196.441 543.447 176.932C543.447 153.088 560.168 141.011 587.109 127.076V197.37ZM587.109 199.228V199.847L586.49 199.228H587.109ZM699.826 226.788H641.3V219.046H647.183C649.661 219.046 656.473 211.304 656.473 207.898V97.3484C656.473 92.7035 647.803 84.6523 644.396 84.6523H638.203V76.9107C646.254 76.2914 666.692 70.0981 675.672 65.7628H677.221L683.724 89.9165C696.729 76.9107 710.664 65.1435 725.838 65.1435C742.56 65.1435 753.088 76.2914 756.494 90.2262C769.191 77.2203 783.435 65.1435 798.609 65.1435C818.737 65.1435 830.194 81.5556 830.194 98.8968V207.898C830.194 211.304 837.007 219.046 839.484 219.046H845.368V226.788H786.841V219.046H792.725C795.202 219.046 802.015 211.304 802.015 207.898V100.445C802.015 91.1552 796.751 85.2716 788.699 85.2716C779.1 85.2716 767.642 93.6325 757.423 103.851V207.898C757.423 211.304 764.236 219.046 766.713 219.046H772.597V226.788H714.071V219.046H719.954C722.431 219.046 729.244 211.304 729.244 207.898V100.445C729.244 91.1552 723.98 85.2716 715.929 85.2716C706.329 85.2716 694.871 93.6325 684.653 103.851V207.898C684.653 211.304 691.465 219.046 693.943 219.046H699.826V226.788ZM896.76 207.898V65.7628H895.211C885.921 70.0981 857.432 76.2913 848.762 76.9107V84.6522H856.503C859.91 84.6522 868.58 92.7035 868.58 97.3484V207.898C868.58 211.304 861.768 219.046 859.29 219.046H851.858V226.788H913.481V219.046H906.049C903.572 219.046 896.76 211.304 896.76 207.898ZM862.077 27.6742C862.077 38.5124 870.748 46.5637 880.967 46.5637C891.186 46.5637 899.856 38.5124 899.856 27.6742C899.856 16.836 891.186 8.78479 880.967 8.78479C870.748 8.78479 862.077 16.836 862.077 27.6742ZM926.487 226.788V175.074H933.919C935.158 186.222 953.118 216.878 974.485 216.878C986.562 216.878 995.542 207.279 995.542 192.415C995.542 180.648 988.729 172.287 977.891 164.855L945.686 142.869C930.513 132.65 924.01 121.502 924.01 107.877C924.01 83.1039 942.28 67.3111 963.956 67.3111C974.123 67.3111 980.844 70.2818 985.959 72.5428C989.101 73.9316 991.637 75.0527 993.994 75.0527C996.471 75.0527 999.258 72.885 1000.19 70.0981H1006.38V114.999H999.568C998.329 105.4 981.297 78.7686 963.337 78.7686C953.428 78.7686 946.306 84.9619 946.306 94.8711C946.306 104.78 953.737 112.212 963.647 119.025L995.852 141.321C1011.33 152.159 1018.46 164.545 1018.46 180.028C1018.46 209.137 998.639 228.336 972.627 228.336C962.82 228.336 955.521 225.112 949.987 222.668C946.61 221.176 943.891 219.975 941.661 219.975C937.945 219.975 934.538 223.072 933.3 226.788H926.487ZM1071.1 229.884C1085.03 229.884 1096.8 216.569 1108.26 197.989L1102.07 193.963C1094.32 204.492 1087.2 210.375 1081.94 210.375C1072.65 210.375 1067.07 201.395 1067.07 194.892V84.9619H1102.69V73.5044H1065.84V28.6032H1058.71C1058.4 36.0352 1033.01 73.5044 1026.51 73.5044H1016.6V84.3426H1038.89V198.299C1038.89 216.569 1051.28 229.884 1071.1 229.884Z" fill="black"/>
</svg>
