<?xml version="1.0" standalone="no"?>
<!DOCTYPE svg PUBLIC "-//W3C//DTD SVG 20010904//EN"
 "http://www.w3.org/TR/2001/REC-SVG-20010904/DTD/svg10.dtd">
<svg version="1.0" xmlns="http://www.w3.org/2000/svg"
 width="512.000000pt" height="512.000000pt" viewBox="0 0 512.000000 512.000000"
 preserveAspectRatio="xMidYMid meet">
<metadata>
Created by potrace 1.14, written by Peter Selinger 2001-2017
</metadata>
<g transform="translate(0.000000,512.000000) scale(0.100000,-0.100000)"
fill="#000000" stroke="none">
<path d="M2340 4525 c-464 -93 -817 -511 -981 -1162 -170 -671 -108 -1513 150
-2058 181 -381 428 -612 758 -707 106 -31 350 -33 458 -4 162 43 310 130 419
246 67 71 68 72 88 53 12 -10 85 -75 162 -145 78 -71 147 -128 153 -128 10 0
13 194 15 899 l3 899 38 55 c61 88 98 111 185 116 l73 3 -3 67 -3 66 -572 3
-573 2 0 -70 0 -70 85 0 c55 0 96 -5 113 -14 32 -17 80 -66 116 -121 l26 -40
0 -635 0 -635 -37 -64 c-122 -206 -354 -284 -558 -188 -251 120 -452 495 -564
1052 -102 506 -127 1165 -60 1564 50 299 136 498 279 642 121 122 231 165 405
157 79 -3 100 -8 168 -40 42 -20 97 -51 121 -67 228 -157 437 -458 471 -678
l7 -43 69 0 69 0 0 500 0 500 -67 0 c-65 -1 -69 -2 -88 -33 -43 -68 -141 -86
-243 -43 -31 13 -95 41 -142 61 -128 55 -225 75 -360 74 -63 0 -144 -7 -180
-14z"/>
</g>
</svg>
