<svg width="36" height="14" viewBox="0 0 36 14" fill="none" xmlns="http://www.w3.org/2000/svg">
<path fill-rule="evenodd" clip-rule="evenodd" d="M18.4347 13.9994H26.2734V2.89416H18.4347V13.9994ZM23.4143 5.34524H24.9695L23.0631 8.37705V10.3269H21.6653V8.39815L19.759 5.34524H21.3432L22.3748 7.09583L23.4143 5.34524ZM27.6521 14H35.4905V0H27.6521V14ZM31.7542 10.4264C30.3211 10.4264 29.1671 9.33829 29.1671 7.85027V7.83649C29.1671 6.38464 30.2921 5.24609 31.8114 5.24609C32.8361 5.24609 33.4956 5.6727 33.9399 6.28502L32.8938 7.08907C32.607 6.73329 32.2776 6.50579 31.7973 6.50579C31.0946 6.50579 30.6004 7.09585 30.6004 7.82203V7.83649C30.6004 8.58346 31.0946 9.16697 31.7973 9.16697C32.3204 9.16697 32.6287 8.92482 32.9291 8.5623L33.976 9.30217C33.5029 9.94974 32.865 10.4264 31.7542 10.4264ZM9.21725 13.9995H17.0562V1.64836H9.21725V13.9995ZM15.5783 10.3269H14.3596L12.2172 7.5943V10.3269H10.8409V5.34522H12.1381L14.2021 7.97815V5.34522H15.5783V10.3269ZM1.7015 10.3517H2.9129L3.91598 7.48401L4.92698 10.3517H6.13797L7.81471 5.33478H6.37465L5.4999 8.21724L4.53265 5.32073H3.33582L2.36829 8.21724L1.494 5.33478H0.0242952L1.7015 10.3517ZM0 11.6334H7.83897V13.9995H0V11.6334Z" fill="white"/>
</svg>
