<svg width="60" height="60" viewBox="0 0 60 60" fill="none" xmlns="http://www.w3.org/2000/svg">
<rect width="60" height="60" fill="white"/>
<path fill-rule="evenodd" clip-rule="evenodd" d="M29.527 38.7492H38.3618V24.8677H29.527V38.7492ZM35.1394 27.9316H36.8922L34.7436 31.7213V34.1586H33.1682V31.7477L31.0197 27.9316H32.8051L33.9678 30.1198L35.1394 27.9316ZM39.9156 38.75H48.75V21.25H39.9156V38.75ZM44.539 34.283C42.9237 34.283 41.6232 32.9229 41.6232 31.0628V31.0456C41.6232 29.2308 42.891 27.8076 44.6034 27.8076C45.7583 27.8076 46.5016 28.3409 47.0024 29.1063L45.8233 30.1113C45.5001 29.6666 45.1289 29.3822 44.5875 29.3822C43.7956 29.3822 43.2386 30.1198 43.2386 31.0275V31.0456C43.2386 31.9793 43.7956 32.7087 44.5875 32.7087C45.1771 32.7087 45.5246 32.406 45.8631 31.9529L47.0431 32.8777C46.5099 33.6872 45.7909 34.283 44.539 34.283ZM19.1384 38.7493H27.9734V23.3104H19.1384V38.7493ZM26.3077 34.1586H24.9342L22.5195 30.7429V34.1586H20.9684V27.9315H22.4304L24.7567 31.2227V27.9315H26.3077V34.1586ZM10.6677 34.1896H12.033L13.1635 30.605L14.303 34.1896H15.6679L17.5577 27.9185H15.9346L14.9487 31.5216L13.8586 27.9009H12.5097L11.4192 31.5216L10.4338 27.9185H8.77738L10.6677 34.1896ZM8.75 35.7918H17.585V38.7494H8.75V35.7918Z" fill="#DE1E3D"/>
</svg>
