<?xml version="1.0" encoding="utf-8"?>
<!-- Generator: Adobe Illustrator 26.5.0, SVG Export Plug-In . SVG Version: 6.00 Build 0)  -->
<svg version="1.1" id="Layer_1" xmlns="http://www.w3.org/2000/svg" xmlns:xlink="http://www.w3.org/1999/xlink" x="0px" y="0px"
	 viewBox="0 0 582 111" style="enable-background:new 0 0 582 111;" xml:space="preserve">
<style type="text/css">
	.st0{fill:#FFFFFF;}
</style>
<g>
	<path class="st0" d="M414.5,61.9c-0.6,1.7-0.9,3.1,0.4,4.5c2.8-0.6,6.4,1.8,8.5-2.8C420.4,60.6,417.4,61.7,414.5,61.9z"/>
	<path class="st0" d="M422.4,51.4c-2.7-2.6-5.3-1.8-7.9-1.6c-0.7,1.5-0.8,2.8,0,4.3C417.4,54,420.7,55.7,422.4,51.4z"/>
	<path class="st0" d="M0-0.1C0,37.3,0,74.6,0,112c194,0,388,0,581.9,0c0-37.4,0-74.7,0-112.1C388-0.1,194-0.1,0-0.1z M48.1,75.2
		c-4.1,0-7.4,0-11,0c0-11.6,0-22.9,0-34.3c3.7-0.8,7.2-0.3,11-0.4C48.1,52.3,48.1,63.7,48.1,75.2z M106.2,75.1c-3.3,0-6.4,0-10.3,0
		c-3.5-4.3-7.3-9.1-11.5-14.2c-1.9,4.8,0,9.6-1.4,14.2c-3.5,0.7-6.9,0.4-10.7,0.1c0-11.5,0-22.8,0-34.4c3.4,0,6.7,0,10.7,0
		c3.4,4.2,7.1,8.8,11.3,14c1.5-4.9,0-9.4,1.2-14.1c3.7,0,7,0,10.7,0C106.2,52.2,106.2,63.5,106.2,75.1z M150.6,74.7
		c-6.6,1.5-13.2,0.7-20.4,0.7c0-11.8,0-23,0-34.7c7.1,0,14-0.9,20.9,0.8c8.4,2.1,12.9,8,12.8,16.7C163.8,66.5,158.8,72.8,150.6,74.7
		z M198.1,75c-3.7,0.8-7.1,0.5-11,0.3c0-11.5,0-22.8,0-34.3c3.6-0.8,7.1-0.6,11-0.2C198.1,52.3,198.1,63.6,198.1,75z M244.8,75.4
		c-3.9,0.6-7.5,0.5-11.5,0c-4.5-11.4-9.1-22.8-13.8-34.7c4.7,0,8.6,0,12.7,0c3.2,4.6,2.4,11.2,7.5,15.2c3.5-4.7,3.3-10.7,6.6-15.3
		c3.8,0,7.6,0,12.3,0C253.8,52.6,249.3,64,244.8,75.4z M291,75c-3.7,0.8-7.2,0.3-11,0.4c0-11.6,0-22.9,0-34.6
		c3.6-0.4,7.1-0.4,11,0.1C291,52.3,291,63.6,291,75z M345,64.7c-0.2,4.9-2.6,8.5-7.1,10c-9.1,3.1-17.6,1.6-26-4.2
		c2.2-2.6,4.1-5,6.2-7.5c4.7,2.7,9.2,4.9,15.2,3c-2.1-3-5.2-2.6-7.6-3.4c-1.4-0.4-2.7-0.1-4.2-1c-6.5-3.8-8.5-6.8-7.4-12.1
		c1-5.2,5.8-9,12.2-9.3c6.4-0.3,12.6,0,17.8,4.9c-1.8,2.6-3.6,5-5.3,7.5c-4.3-1.5-8-4.5-12.7-2.3c0.5,2.4,2.3,2.1,3.6,2.5
		c2.9,0.9,5.9,1.4,8.6,2.5C342.4,56.8,345.2,59.6,345,64.7z M378.6,75.2c-3.8,0.4-7.2,0.4-11-0.1c0-11.4,0-22.7,0-34.3
		c3.6-0.6,7.2-0.4,11-0.1C378.6,52.2,378.6,63.4,378.6,75.2z M427,74.8c-7.9,1.5-15.8,0.5-24.2,0.6c0-11.6,0-22.8,0-34.8
		c7.9,0.1,15.8-0.6,23.7,0.5c3.5,0.5,6.3,2.6,7.2,6.2c1.1,4.3-1,7.4-4.7,9.7c2.1,2,4.7,3.1,5.6,5.9C436.4,68.2,433.2,73.6,427,74.8z
		 M484.9,75.2c-9.5,0-18.3,0-27.5,0c0-11.5,0-22.8,0-34.4c3.4-0.8,7-0.4,11.1-0.1c0,8.1,0,16,0,24.1c5.5,1.3,10.7,0,15.9,0.9
		C485.4,68.8,484.7,71.8,484.9,75.2z M536.6,75.1c-10,0-19.5,0-29.4,0c0-11.4,0-22.6,0-34.4c9.7,0,19.2,0,28.7,0
		c1.1,3,0.6,5.9,0.3,9.5c-5.9,0-11.6,0-17.4,0c0.7,3.4,0.7,3.3,7.1,3.4c2.9,0,6-0.6,8.9,0.5c0.8,2.6,0.5,5,0,8c-5.2,0-10.4,0-15.7,0
		c-1.2,3.2,0.4,3.6,2.5,3.6c4.8,0,9.6,0,14.5,0C537.3,69,536.6,71.9,536.6,75.1z"/>
	<path class="st0" d="M142.3,51.4c0,4.6,0,9.1,0,13.7c7.4-0.3,10-2.4,9.8-7.5C151.8,52.8,148.7,50.8,142.3,51.4z"/>
</g>
</svg>
