<?xml version="1.0" encoding="utf-8"?>
<!-- Generator: Adobe Illustrator 26.5.0, SVG Export Plug-In . SVG Version: 6.00 Build 0)  -->
<svg version="1.1" id="Layer_1" xmlns="http://www.w3.org/2000/svg" xmlns:xlink="http://www.w3.org/1999/xlink" x="0px" y="0px"
	 viewBox="0 0 76 22" style="enable-background:new 0 0 76 22;" xml:space="preserve">
<style type="text/css">
	.st0{fill:#FFFFFF;}
</style>
<path class="st0" d="M72.6,20.5l-3.8-5.6l0,0c0-0.1-0.1-0.2-0.3-0.1l0,0c-0.2,0-0.4,0-0.6,0.1c-0.1,0-0.2,0.1-0.1,0.3l3.7,5.6
	c0.1,0.1,0.1,0.1,0.2,0.1h0.7C72.7,20.8,72.6,20.7,72.6,20.5L72.6,20.5z"/>
<path class="st0" d="M32.6,1.2L32.6,1.2c0-0.2-0.1-0.3-0.3-0.3h-0.4c-0.2,0-0.3,0.1-0.3,0.3v11.9c0,2.6-2,4.7-4.5,4.7
	c-1,0-1.9-0.4-2.7-0.9c-0.2-0.1-0.2-0.1-0.4,0l-0.3,0.3c-0.1,0.1-0.1,0.3,0,0.4c1,0.8,2.2,1.2,3.4,1.2c3,0,5.5-2.5,5.5-5.7L32.6,1.2
	L32.6,1.2z"/>
<path class="st0" d="M47.7,0.9l-9.5,0c-0.2,0-0.3,0.1-0.3,0.3v19.4c0,0.2,0.1,0.3,0.3,0.3h0.4c0.2,0,0.3-0.1,0.3-0.3l0-18.4
	c0-0.1,0.1-0.2,0.2-0.2h8.6c3.5,0,6.4,2.9,6.4,6.5c0,3.6-2.9,6.5-6.4,6.5h-4.7c-0.2,0-0.3,0.1-0.3,0.3v0v0.1v5.1v0
	c0,0.2,0.1,0.3,0.3,0.3h0.4c0.2,0,0.3-0.1,0.3-0.3v-4.2h0v-0.1h0v0c0-0.1,0.1-0.2,0.2-0.2h0.1h3.7c4,0,7.3-3.4,7.3-7.5
	C55.1,4.3,51.8,0.9,47.7,0.9L47.7,0.9z"/>
<path class="st0" d="M67.3,5.8L67.3,5.8l-4.7,0c-0.2,0-0.3,0.1-0.3,0.3v4.4c0,0.2,0.1,0.3,0.3,0.3h4.6c1.4,0,2.4-1,2.4-2.5
	C69.8,6.9,68.8,5.8,67.3,5.8z M67.3,9.9L67.3,9.9h-3.7c-0.1,0-0.2-0.1-0.2-0.2V7.1c0-0.1,0.1-0.2,0.2-0.2h3.7c1.1,0,1.5,0.8,1.5,1.5
	C68.8,9.1,68.4,9.9,67.3,9.9z"/>
<path class="st0" d="M47.7,5.8L47.7,5.8l-4.7,0c-0.2,0-0.3,0.1-0.3,0.3v0v0.1v4.3c0,0.2,0.1,0.3,0.3,0.3h4.6c1.4,0,2.4-1.1,2.4-2.5
	S49.1,5.8,47.7,5.8z M47.7,9.9L47.7,9.9H44c-0.1,0-0.2-0.1-0.2-0.2V7.2h0V7.1h0v0c0-0.1,0.1-0.2,0.2-0.2h3.7c0.9,0,1.5,0.6,1.5,1.5
	C49.2,9.3,48.6,9.9,47.7,9.9z"/>
<path class="st0" d="M69.9,20.6L66.1,15c-0.1-0.1-0.1-0.1-0.2-0.1h-3.2c-0.2,0-0.3,0.1-0.3,0.3v5.4c0,0.2,0.1,0.3,0.3,0.3h0.4
	c0.2,0,0.3-0.1,0.3-0.3h0l0-4.4c0-0.1,0.1-0.2,0.2-0.2h1.8c0.1,0,0.1,0,0.2,0.1l3.2,4.7c0.1,0.1,0.2,0.2,0.3,0.2h0.7
	C70,20.8,70,20.7,69.9,20.6L69.9,20.6z"/>
<path class="st0" d="M34.7,0.9h-0.4C34.2,0.9,34,1,34,1.2v12.1c0,3.9-3.1,7-6.8,7c-1.9,0-3.7-0.8-5-2.3l-0.5-0.5
	c-0.1-0.1-0.1-0.2,0-0.3h0l0,0l2.2-2.2c0.1-0.1,0.2-0.1,0.3,0l0,0l0.5,0.5c0.6,0.6,1.4,0.9,2.2,0.9c1.8,0,3.2-1.5,3.2-3.3V1.2
	c0-0.2-0.1-0.3-0.3-0.3h-0.4c-0.2,0-0.3,0.1-0.3,0.3l0,11.9c0,1.3-1,2.3-2.2,2.3c-0.6,0-1.2-0.3-1.6-0.8l-1-1
	c-0.1-0.1-0.3-0.1-0.4,0l-3.5,3.5l0,0l0,0c-0.1,0.1-0.1,0.3,0,0.4l1.1,1.1c1.5,1.6,3.6,2.6,5.7,2.6c4.3,0,7.8-3.6,7.8-8V1.2
	C35,1,34.9,0.9,34.7,0.9L34.7,0.9z"/>
<path class="st0" d="M13.6,12.8c0.1,0,0.2-0.1,0.2-0.2v0V1.1c0-0.2-0.1-0.3-0.3-0.3h-0.4c-0.2,0-0.3,0.1-0.3,0.3l0,9L6.8,1.1
	C6.6,0.9,6.5,0.9,6.3,0.9l-4.9,0C1.3,0.9,1.1,1,1.1,1.2l0,19.3c0,0.2,0.1,0.3,0.3,0.3h0.4c0.2,0,0.3-0.1,0.3-0.3V2.1v0
	c0-0.1,0.1-0.2,0.2-0.2l3.6,0c0,0,0.2,0,0.3,0.2l7.2,10.6C13.5,12.7,13.6,12.8,13.6,12.8L13.6,12.8z"/>
<path class="st0" d="M18.7,1.2c0-0.2-0.1-0.3-0.3-0.3H18c-0.2,0-0.3,0.1-0.3,0.3l0,18.4v0c0,0.1-0.1,0.2-0.2,0.2h-3.7
	c-0.1,0-0.1,0-0.2-0.1L6.4,9c0-0.1-0.1-0.1-0.2-0.1C6.1,8.9,6,9,6,9.2v0v0l0,11.3c0,0.2,0.1,0.3,0.3,0.3h0.4c0.2,0,0.3-0.1,0.3-0.3
	v-9l6.1,9.1c0.1,0.2,0.3,0.2,0.4,0.2l4.9,0c0.2,0,0.3-0.1,0.3-0.3h0L18.7,1.2L18.7,1.2z"/>
<path class="st0" d="M16.3,1.2c0-0.2-0.1-0.3-0.3-0.3h-0.4c-0.2,0-0.3,0.1-0.3,0.3V17c0,0.1-0.1,0.2-0.2,0.2c-0.1,0-0.1,0-0.2-0.1
	L5.8,4.2L5.7,4.1c-0.2-0.3-0.6-0.5-1-0.5h0c-0.6,0-1.2,0.5-1.2,1.2v15.8c0,0.2,0.1,0.3,0.3,0.3h0.4c0.2,0,0.3-0.1,0.3-0.3l0-15.8
	c0-0.1,0.1-0.2,0.2-0.2c0.1,0,0.1,0,0.2,0.1l9.2,12.9l0.1,0.1c0.2,0.3,0.6,0.5,1,0.5h0c0.6,0,1.2-0.5,1.2-1.2L16.3,1.2L16.3,1.2z"/>
<path class="st0" d="M47.9,3.4l-7.1,0h-0.1c-0.2,0-0.3,0.1-0.3,0.3h0l0,16.8c0,0.2,0.1,0.3,0.3,0.3H41c0.2,0,0.3-0.1,0.3-0.3l0-15.9
	h0c0-0.1,0.1-0.2,0.2-0.2h6.3c2.1,0,3.9,1.8,3.9,4c0,2.2-1.7,4-3.9,4h-4.7h-0.1h0c-0.2,0-0.3,0.1-0.3,0.3v0.4c0,0.2,0.1,0.3,0.3,0.3
	l4.8,0c2.7,0,4.8-2.2,4.8-5C52.7,5.6,50.5,3.4,47.9,3.4L47.9,3.4z"/>
<path class="st0" d="M67.5,3.4l-7.2,0c-0.2,0-0.3,0.1-0.3,0.3h0l0,16.8h0c0,0.2,0.1,0.3,0.3,0.3h0.4c0.2,0,0.3-0.1,0.3-0.3V4.6
	c0-0.1,0.1-0.2,0.2-0.2h6.3c2.1,0,3.9,1.8,3.9,4s-1.7,4-3.9,4h-4.8h0c-0.2,0-0.3,0.1-0.3,0.3v0.4c0,0.2,0.1,0.3,0.3,0.3l4.8,0
	c2.7,0,4.8-2.2,4.8-5C72.3,5.6,70.2,3.4,67.5,3.4L67.5,3.4z"/>
<path class="st0" d="M75.2,20.5l-3.8-5.7c-0.1-0.2,0.1-0.2,0.1-0.2v0c1.9-1.4,3.2-3.6,3.2-6.2c0-4.2-3.3-7.5-7.3-7.5l-9.5,0
	c-0.2,0-0.3,0.1-0.3,0.3v19.4c0,0.2,0.1,0.3,0.3,0.3h0.4c0.2,0,0.3-0.1,0.3-0.3V2.1c0-0.1,0.1-0.2,0.2-0.2h8.6
	c3.5,0,6.4,2.9,6.4,6.5c0,2.5-1.4,4.7-3.4,5.8v0c0,0-0.4,0.1-0.1,0.5l4,5.9c0.1,0.1,0.2,0.2,0.3,0.2h0.7
	C75.3,20.8,75.3,20.7,75.2,20.5L75.2,20.5z"/>
</svg>
