<svg width="297" height="191" viewBox="0 0 297 191" fill="none" xmlns="http://www.w3.org/2000/svg">
<mask id="mask0_516_1415" style="mask-type:alpha" maskUnits="userSpaceOnUse" x="0" y="0" width="297" height="191">
<rect width="297" height="191" fill="#59A09C"/>
</mask>
<g mask="url(#mask0_516_1415)">
<rect x="-31.354" y="148.39" width="360.468" height="50" transform="rotate(-32.6321 -31.354 148.39)" fill="black"/>
</g>
<path d="M53.9619 114.66L62.5771 109.143L63.7753 111.015L57.3463 115.131L59.5173 118.522L64.742 115.176L65.9402 117.048L60.7155 120.393L64.4525 126.229L62.2663 127.629L53.9619 114.66Z" fill="white"/>
<path d="M64.1121 108.161L69.0774 104.981C69.8679 104.475 70.6647 104.183 71.4676 104.104C72.2706 104.025 73.0207 104.163 73.718 104.518C74.4276 104.864 75.0158 105.402 75.4824 106.131C75.9728 106.897 76.2079 107.713 76.1878 108.579C76.1678 109.445 75.8905 110.25 75.356 110.992L82.6806 114.557L80.1424 116.183L73.3648 112.738L71.0674 114.209L74.6027 119.73L72.4165 121.13L64.1121 108.161ZM72.2778 110.795C72.9448 110.368 73.3753 109.857 73.5693 109.263C73.7555 108.656 73.6706 108.075 73.3147 107.519C72.9588 106.963 72.4703 106.649 71.8491 106.576C71.2324 106.484 70.5844 106.655 69.9051 107.09L67.4965 108.632L69.8692 112.337L72.2778 110.795Z" fill="white"/>
<path d="M75.7279 100.723L84.3431 95.2063L85.5413 97.0776L79.1123 101.194L81.2833 104.585L86.508 101.239L87.7062 103.11L82.4815 106.456L85.0202 110.421L91.5048 106.269L92.703 108.14L84.0322 113.692L75.7279 100.723Z" fill="white"/>
<path d="M86.3123 93.9454L94.9275 88.4289L96.1257 90.3002L89.6967 94.4167L91.8677 97.8072L97.0924 94.4618L98.2906 96.333L93.0659 99.6785L95.6047 103.643L102.089 99.4912L103.287 101.362L94.6167 106.914L86.3123 93.9454Z" fill="white"/>
<path d="M104.533 84.9167L100.55 87.4673L99.3516 85.5961L109.505 79.095L110.703 80.9662L106.719 83.5168L113.826 94.6147L111.639 96.0146L104.533 84.9167Z" fill="white"/>
<path d="M113.722 85.9297L119.465 82.2521L120.569 83.9751L114.825 87.6528L113.722 85.9297Z" fill="white"/>
<path d="M130.167 84.3597C128.735 85.2771 127.306 85.6433 125.881 85.4584C124.461 85.2531 123.235 84.4798 122.202 83.1385L124.332 81.7742C124.964 82.5711 125.688 83.0218 126.504 83.1264C127.332 83.2231 128.154 83.0104 128.969 82.4884C129.686 82.0297 130.163 81.4974 130.402 80.8916C130.646 80.2654 130.594 79.6806 130.246 79.1372C129.969 78.7049 129.608 78.4399 129.162 78.3421C128.728 78.2365 128.267 78.2361 127.777 78.3409C127.291 78.4256 126.635 78.5843 125.809 78.8172C124.766 79.1194 123.887 79.3249 123.173 79.4338C122.472 79.5347 121.775 79.4669 121.084 79.2304C120.384 78.9815 119.778 78.4557 119.264 77.6528C118.813 76.9488 118.603 76.2126 118.633 75.4442C118.668 74.6555 118.918 73.9034 119.383 73.1878C119.86 72.4643 120.512 71.8376 121.34 71.3077C122.699 70.4377 124.015 70.0735 125.29 70.215C126.565 70.3565 127.664 70.9851 128.587 72.1006L126.457 73.4649C125.938 72.9264 125.333 72.6345 124.642 72.5892C123.943 72.5315 123.242 72.7281 122.538 73.1789C121.871 73.606 121.431 74.0881 121.218 74.6253C121.004 75.1625 121.056 75.6781 121.372 76.1722C121.594 76.518 121.897 76.7331 122.282 76.8175C122.659 76.8896 123.07 76.8789 123.515 76.7854C123.973 76.684 124.562 76.5159 125.282 76.281C126.382 75.9595 127.306 75.7427 128.052 75.6303C128.799 75.518 129.556 75.5991 130.324 75.8737C131.097 76.128 131.771 76.706 132.349 77.6076C132.831 78.3611 133.061 79.1546 133.037 79.9882C133.006 80.8094 132.741 81.606 132.242 82.378C131.748 83.1297 131.057 83.7902 130.167 84.3597Z" fill="white"/>
<path d="M141.309 68.7612L135.084 72.7473L138.833 78.602L136.647 80.0018L128.343 67.0327L130.529 65.6328L133.886 70.8761L140.111 66.89L136.754 61.6468L138.94 60.2469L147.244 73.216L145.058 74.6159L141.309 68.7612Z" fill="white"/>
<path d="M141.532 58.587L143.719 57.1872L152.023 70.1563L149.837 71.5562L141.532 58.587Z" fill="white"/>
<path d="M146.309 55.5285L151.274 52.3491C152.065 51.843 152.861 51.5505 153.664 51.4718C154.467 51.393 155.218 51.531 155.915 51.8856C156.624 52.2323 157.213 52.77 157.679 53.4988C158.17 54.2646 158.405 55.0806 158.385 55.9468C158.365 56.813 158.087 57.6175 157.553 58.3603L164.877 61.9253L162.339 63.5506L155.562 60.1056L153.264 61.5766L156.8 67.0978L154.613 68.4976L146.309 55.5285ZM154.475 58.1631C155.142 57.736 155.572 57.2253 155.766 56.6308C155.952 56.0239 155.867 55.4426 155.512 54.8868C155.156 54.331 154.667 54.0168 154.046 53.9443C153.429 53.8516 152.781 54.0227 152.102 54.4577L149.693 55.9999L152.066 59.7054L154.475 58.1631Z" fill="white"/>
<path d="M161.599 48.3767L157.615 50.9273L156.417 49.056L166.57 42.5549L167.768 44.4262L163.785 46.9768L170.891 58.0747L168.705 59.4745L161.599 48.3767Z" fill="white"/>
</svg>
