<svg width="60" height="60" viewBox="0 0 60 60" fill="none" xmlns="http://www.w3.org/2000/svg">
<path d="M30 0L33.7544 6.29548L39.2705 1.4683L40.8958 8.61584L47.6336 5.72949L46.9706 13.0294L54.2705 12.3664L51.3842 19.1042L58.5317 20.7295L53.7045 26.2456L60 30L53.7045 33.7544L58.5317 39.2705L51.3842 40.8958L54.2705 47.6336L46.9706 46.9706L47.6336 54.2705L40.8958 51.3842L39.2705 58.5317L33.7544 53.7045L30 60L26.2456 53.7045L20.7295 58.5317L19.1042 51.3842L12.3664 54.2705L13.0294 46.9706L5.72949 47.6336L8.61584 40.8958L1.4683 39.2705L6.29548 33.7544L0 30L6.29548 26.2456L1.4683 20.7295L8.61584 19.1042L5.72949 12.3664L13.0294 13.0294L12.3664 5.72949L19.1042 8.61584L20.7295 1.4683L26.2456 6.29548L30 0Z" fill="black"/>
<path d="M15.3021 36.1731L17.1899 35.9249L16.6316 31.6775L20.4348 31.1775L20.2232 29.5674L16.4199 30.0673L16.1243 27.8187L20.8298 27.2001L20.6182 25.59L14.0249 26.4567L15.3021 36.1731Z" fill="white"/>
<path d="M22.988 35.1628L24.8757 34.9146L24.3521 30.9309L25.865 30.732L28.6512 34.4183L30.8444 34.1301L27.6951 30.1526C28.6168 29.5372 29.1016 28.4992 28.9575 27.4026C28.7312 25.6814 27.3324 24.7074 25.5001 24.9482L21.7107 25.4464L22.988 35.1628ZM24.1404 29.3208L23.8102 26.8084L25.3925 26.6004C26.3225 26.4781 26.9712 26.9012 27.0697 27.6507C27.1683 28.4003 26.6528 28.9905 25.7228 29.1127L24.1404 29.3208Z" fill="white"/>
<path d="M31.7582 34.0099L38.407 33.1359L38.1954 31.5258L33.4343 32.1516L33.0876 29.5143L36.8909 29.0144L36.6793 27.4042L32.876 27.9042L32.5804 25.6555L37.2859 25.037L37.0743 23.4268L30.481 24.2935L31.7582 34.0099Z" fill="white"/>
<path d="M39.7558 32.9586L46.4046 32.0847L46.193 30.4745L41.4319 31.1004L41.0853 28.463L44.8885 27.9631L44.6769 26.353L40.8736 26.8529L40.578 24.6042L45.2835 23.9857L45.0719 22.3755L38.4786 23.2422L39.7558 32.9586Z" fill="white"/>
</svg>
