<?xml version="1.0" encoding="utf-8"?>
<!-- Generator: Adobe Illustrator 27.0.1, SVG Export Plug-In . SVG Version: 6.00 Build 0)  -->
<svg version="1.1" id="Layer_1" xmlns="http://www.w3.org/2000/svg" xmlns:xlink="http://www.w3.org/1999/xlink" x="0px" y="0px"
	 viewBox="0 0 1013 104" style="enable-background:new 0 0 1013 104;" xml:space="preserve">
<style type="text/css">
	.st0{fill:#FFFFFF;}
</style>
<g id="GT_Logo_00000003825232723005879540000007401336907628753343_">
	<g>
		<path class="st0" d="M59.5,65.3h13.3v8.4c-2.2,2.1-9.8,8.7-20.6,8.7c-16,0-27.6-12.5-27.6-29.6c0-17.1,11.6-29.1,28.3-29.1
			c12.7,0,21.3,7.3,21.4,7.4l2.1,1.8l8.4-12.5L83.3,19C82.8,18.5,72.2,8.4,51.9,8.4c-25.1,0-44,19.2-44,44.6
			c0,25.5,18.3,44.8,42.5,44.8c10.7,0,18.4-4.1,22.7-7.2v5.8H88v-46H59.5V65.3z"/>
		<rect x="104" y="9.9" class="st0" width="14.3" height="86.5"/>
		<g>
			<g>
				<path class="st0" d="M221.9,8.5c-6,0.1-11.5,2.4-15.6,6.2l-50.1,50.1l6.6,6.6l62.6-62.6C224.3,8.6,223.1,8.5,221.9,8.5"/>
			</g>
			<g>
				<path class="st0" d="M235.1,12.4L169.5,78l6.6,6.6L241.7,19C240,16.4,237.7,14.1,235.1,12.4"/>
			</g>
			<g>
				<path class="st0" d="M245.6,31.8c0-1.1-0.1-2.1-0.3-3.1l-62.6,62.6l6.6,6.6l50.5-50.4C243.5,43.2,245.7,37.8,245.6,31.8"/>
			</g>
		</g>
		<g>
			<g>
				<path class="st0" d="M156.7,8.5c6,0.1,11.5,2.4,15.6,6.2l50.1,50.1l-6.6,6.6L153.2,8.8C154.3,8.6,155.5,8.5,156.7,8.5"/>
			</g>
			<g>
				<path class="st0" d="M143.5,12.4L209.1,78l-6.6,6.6L136.9,19C138.7,16.4,140.9,14.1,143.5,12.4"/>
			</g>
			<g>
				<path class="st0" d="M133,31.8c0-1.1,0.1-2.1,0.3-3.1l62.6,62.6l-6.6,6.6l-50.5-50.4C135.2,43.2,133,37.8,133,31.8"/>
			</g>
		</g>
		<rect x="261" y="9.9" class="st0" width="14.3" height="86.5"/>
		<path class="st0" d="M349.2,65.4c0,0.4,0,0.9,0,1.4c-0.6-1-1.2-1.9-1.8-2.8L310.7,9.9h-15v86.5h16.2V41c0-0.5,0-1,0-1.5
			c0.6,1,1.2,2,1.8,2.8l36.9,54h14.9V9.9h-16.2V65.4z"/>
		<path class="st0" d="M431.8,65.3H445v8.4c-2.1,2.1-9.8,8.7-20.6,8.7c-16,0-27.6-12.5-27.6-29.6c0-17.1,11.6-29.1,28.3-29.1
			c12.7,0,21.3,7.3,21.4,7.4l2.1,1.8l8.5-12.5l-1.5-1.4c-0.4-0.4-11.1-10.5-31.3-10.5c-25.1,0-44,19.2-44,44.6
			c0,25.5,18.3,44.8,42.5,44.8c10.7,0,18.4-4.1,22.7-7.2v5.8h14.9v-46h-28.5V65.3z"/>
	</g>
	<g>
		<polygon class="st0" points="475.9,21 505.6,21 505.6,97.2 517.8,97.2 517.8,21 547.5,21 547.5,10.4 475.9,10.4 		"/>
		<path class="st0" d="M614.8,66.2c0,13.5-8.7,21.3-22.1,21.3c-13.3,0-21.9-7.7-21.9-21v-56h-12.2v56c0,19.3,13.9,32.2,34.1,32.2
			c20.3,0,34.1-12.9,34.1-32.2v-56h-12.2V66.2z"/>
		<polygon class="st0" points="661.5,58.7 692.6,58.7 692.6,48.1 661.5,48.1 661.5,21 699.7,21 699.7,10.4 649.3,10.4 649.3,97.2 
			701.8,97.2 701.8,86.6 661.5,86.6 		"/>
		<path class="st0" d="M727.3,32.9c0-6.9,6.5-12.7,15.7-12.7c11.1,0,19,7.5,19,7.5l5.5-10.1c0,0-8.5-8.7-24.6-8.7
			c-16.3,0-28,10.7-28,24.2c0,26.6,42,22.6,42,41.4c0,8.2-6.9,12.8-15,12.8c-12.9,0-22.1-9.3-22.1-9.3l-6.9,9.2
			c0,0,10.3,11.4,28.7,11.4c17.2,0,27.5-11.1,27.5-24.4C769.3,46.1,727.3,50.9,727.3,32.9z"/>
		<path class="st0" d="M815.5,10.4h-28.7v86.7h28.7c26.5,0,44-16,44-43.5C859.5,26.3,842,10.4,815.5,10.4z M814.6,86.6h-15.7V21
			h15.7c19.4,0,32.3,11.4,32.3,32.7C846.9,75,834.2,86.6,814.6,86.6z"/>
		<path class="st0" d="M897.5,10.4l-31.2,86.7h12.5l8.6-24.9h32.7l8.7,24.9h12.6l-31.2-86.7H897.5z M890.7,62.2l9.7-27.5
			c1.5-4.4,3.4-12.3,3.4-12.3h0.2c0,0,1.8,7.9,3.3,12.3l9.6,27.5H890.7z"/>
		<path class="st0" d="M994.2,10.4l-15.8,28.5c-2.7,4.9-5.3,10.9-5.3,10.9h-0.2c0,0-2.6-6.1-5.3-10.9l-16.1-28.5h-13.8l29.1,50v36.7
			h12.2V60.4l29-50H994.2z"/>
	</g>
</g>
</svg>
